<svg xmlns="http://www.w3.org/2000/svg" viewBox="0 0 76 76"><title>Icon</title><g id="Layer_2" data-name="Layer 2"><g id="Layer_4" data-name="Layer 4"><rect width="76" height="76" style="fill:none"/><g id="Flask"><path id="Flask-2" data-name="Flask" d="M20.64,66.93A8.68,8.68,0,0,1,12,58.25a8.33,8.33,0,0,1,1.45-4.72L29.32,25.88V20.64a2.89,2.89,0,0,1-2.89-2.89V14.86a5.79,5.79,0,0,1,5.79-5.79H43.79a5.79,5.79,0,0,1,5.79,5.79v2.89a2.89,2.89,0,0,1-2.89,2.89v5.24L62.59,53.53A8.33,8.33,0,0,1,64,58.25a8.68,8.68,0,0,1-8.68,8.68H20.64" style="fill:#212121"/><g id="Liquid"><path d="M17.75,58.25a2.89,2.89,0,0,0,2.89,2.89H55.36a2.89,2.89,0,0,0,2.89-2.89,2.94,2.94,0,0,0-.52-1.65L51.1,45.15l-7.32,7.32L29.12,37.8,18.27,56.6a2.94,2.94,0,0,0-.52,1.65" style="fill:#00e676"/><circle cx="40.89" cy="35.11" r="2.89" style="fill:#00e676"/></g></g></g></g></svg>