<svg xmlns="http://www.w3.org/2000/svg" viewBox="0 0 209.49 57.86"><title>Logo</title><g id="Layer_2" data-name="Layer 2"><g id="Logo_Light" data-name="Logo Light"><path d="M72.1,24.26V44.55H63V24.26h-8.9V16.49H81v7.77Z" style="opacity:0.8700000047683716"/><path d="M103.41,41.38A19.32,19.32,0,0,1,92.1,45c-7.57,0-12.29-4-12.29-11.46S84.39,21.73,92.1,21.73c6.93,0,11.31,3.82,11.31,10.77a24.45,24.45,0,0,1-.2,3.08H88.42c.44,2.12,1.67,3,4.08,3a18.7,18.7,0,0,0,8.41-1.93ZM95.69,31.16c-.1-2.44-1.33-3.73-3.59-3.73-2,0-3.34,1.2-3.74,3.73Z" style="opacity:0.8700000047683716"/><path d="M116.49,27.21l.54.87c.15-.32.34-.6.49-.87l3.34-5h9.49l-7.52,11.13,7.57,11.23h-9.29l-3.59-5.06-.49-.87c-.2.32-.39.6-.54.87l-3.59,5.06H103.6l7.57-11.23-7.52-11.18h9.49Z" style="opacity:0.8700000047683716"/><path d="M133.1,44.55V16.49h9.19V36.73h12.88v7.82Z" style="fill:#00c853;opacity:0.8700000047683716"/><path d="M159.84,23.48c5.8-1.47,8.21-1.75,10.62-1.75,7.13,0,10.13,2.71,10.13,9.2V44.55h-8.8V41.93a8.6,8.6,0,0,1-6.49,3c-5,0-7.82-1.61-7.82-7.08,0-4.74,3.39-6.95,10.13-6.95h4.18c0-1.93-.59-2.9-3-2.9a44.08,44.08,0,0,0-7.62,1Zm9,11.36c-2,0-3.1.51-3.1,2s1,2.16,2.56,2.16a5.55,5.55,0,0,0,3.49-1.33V34.85Z" style="fill:#00c853;opacity:0.8700000047683716"/><path d="M193.32,24.91a10.07,10.07,0,0,1,7.33-3.13c5.85,0,8.85,3.4,8.85,11.32,0,8.37-4.38,11.87-9.34,11.87-3.64,0-5-1.06-6.83-2.94v2.53h-8.9V15h8.9Zm0,11.18a4.28,4.28,0,0,0,3.83,2c2.26,0,3.54-1.52,3.54-5,0-3.08-1.18-4.37-3.34-4.37a5,5,0,0,0-4,2.16Z" style="fill:#00c853;opacity:0.8700000047683716"/><g id="Flask"><path id="Flask-2" data-name="Flask" d="M8.68,57.86A8.68,8.68,0,0,1,0,49.18a8.33,8.33,0,0,1,1.45-4.72L17.36,16.81V11.57a2.89,2.89,0,0,1-2.89-2.89V5.79A5.79,5.79,0,0,1,20.25,0H31.82a5.79,5.79,0,0,1,5.79,5.79V8.68a2.89,2.89,0,0,1-2.89,2.89v5.24L50.63,44.46a8.33,8.33,0,0,1,1.45,4.72,8.68,8.68,0,0,1-8.68,8.68H8.68" style="fill:#212121"/><g id="Liquid"><path d="M5.79,49.18a2.89,2.89,0,0,0,2.89,2.89H43.39a2.89,2.89,0,0,0,2.89-2.89,2.94,2.94,0,0,0-.52-1.65L39.14,36.07l-7.32,7.32L17.15,28.73,6.31,47.53a2.94,2.94,0,0,0-.52,1.65" style="fill:#00e676"/><circle cx="28.93" cy="26.04" r="2.89" style="fill:#00e676"/></g></g></g></g></svg>